{
    "asset" : {
        "generator" : "Khronos glTF Blender I/O v1.4.40",
        "version" : "2.0"
    },
    "scene" : 0,
    "scenes" : [
        {
            "name" : "Scene",
            "nodes" : [
                0,
                1,
                2,
                3,
                4,
                5,
                6,
                7,
                8,
                9,
                10,
                11,
                12,
                13,
                14,
                15,
                16,
                17,
                18,
                19
            ]
        }
    ],
    "nodes" : [
        {
            "name" : "Camera.001",
            "rotation" : [
                0.7810830473899841,
                0.2120378464460373,
                -0.3526064455509186,
                0.46969977021217346
            ],
            "translation" : [
                7.358891487121582,
                4.958309173583984,
                -24.26420783996582
            ]
        },
        {
            "name" : "Camera.002",
            "rotation" : [
                0.7810830473899841,
                0.2120378464460373,
                -0.3526064455509186,
                0.46969977021217346
            ],
            "translation" : [
                7.358891487121582,
                4.958309173583984,
                -24.26420783996582
            ]
        },
        {
            "name" : "Camera.004",
            "rotation" : [
                0.7810830473899841,
                0.2120378464460373,
                -0.3526064455509186,
                0.46969977021217346
            ],
            "translation" : [
                7.358891487121582,
                4.958309173583984,
                -24.26420783996582
            ]
        },
        {
            "name" : "Camera.006",
            "rotation" : [
                0.7810830473899841,
                0.2120378464460373,
                -0.3526064455509186,
                0.46969977021217346
            ],
            "translation" : [
                7.358891487121582,
                4.958309173583984,
                -24.26420783996582
            ]
        },
        {
            "name" : "Camera.007",
            "rotation" : [
                0.7810830473899841,
                0.2120378464460373,
                -0.3526064455509186,
                0.46969977021217346
            ],
            "translation" : [
                7.358891487121582,
                4.958309173583984,
                -24.26420783996582
            ]
        },
        {
            "name" : "Camera.009",
            "rotation" : [
                0.7810830473899841,
                0.2120378464460373,
                -0.3526064455509186,
                0.46969977021217346
            ],
            "translation" : [
                7.358891487121582,
                4.958309173583984,
                -24.26420783996582
            ]
        },
        {
            "name" : "Camera.010",
            "rotation" : [
                0.7810830473899841,
                0.2120378464460373,
                -0.3526064455509186,
                0.46969977021217346
            ],
            "translation" : [
                7.358891487121582,
                4.958309173583984,
                -24.26420783996582
            ]
        },
        {
            "name" : "Camera.003",
            "rotation" : [
                0.7810830473899841,
                0.2120378464460373,
                -0.3526064455509186,
                0.46969977021217346
            ],
            "translation" : [
                7.358891487121582,
                4.958309173583984,
                -24.26420783996582
            ]
        },
        {
            "name" : "Camera.005",
            "rotation" : [
                0.7810830473899841,
                0.2120378464460373,
                -0.3526064455509186,
                0.46969977021217346
            ],
            "translation" : [
                7.358891487121582,
                4.958309173583984,
                -24.26420783996582
            ]
        },
        {
            "name" : "Camera.008",
            "rotation" : [
                0.7810830473899841,
                0.2120378464460373,
                -0.3526064455509186,
                0.46969977021217346
            ],
            "translation" : [
                7.358891487121582,
                4.958309173583984,
                -24.26420783996582
            ]
        },
        {
            "name" : "Camera.011",
            "rotation" : [
                0.7810830473899841,
                0.2120378464460373,
                -0.3526064455509186,
                0.46969977021217346
            ],
            "translation" : [
                7.358891487121582,
                4.958309173583984,
                -24.26420783996582
            ]
        },
        {
            "name" : "Camera.012",
            "rotation" : [
                0.7810830473899841,
                0.2120378464460373,
                -0.3526064455509186,
                0.46969977021217346
            ],
            "translation" : [
                7.358891487121582,
                4.958309173583984,
                -24.26420783996582
            ]
        },
        {
            "name" : "Camera.013",
            "rotation" : [
                0.7810830473899841,
                0.2120378464460373,
                -0.3526064455509186,
                0.46969977021217346
            ],
            "translation" : [
                7.358891487121582,
                4.958309173583984,
                -24.26420783996582
            ]
        },
        {
            "name" : "Camera.014",
            "rotation" : [
                0.7810830473899841,
                0.2120378464460373,
                -0.3526064455509186,
                0.46969977021217346
            ],
            "translation" : [
                7.358891487121582,
                4.958309173583984,
                -24.26420783996582
            ]
        },
        {
            "mesh" : 0,
            "name" : "Cube13_collider.002",
            "scale" : [
                1.0697300434112549,
                0.32306188344955444,
                1.0837767124176025
            ],
            "translation" : [
                -2.546165943145752,
                26.247100830078125,
                39.98536682128906
            ]
        },
        {
            "mesh" : 1,
            "name" : "Cube13_collider.007",
            "scale" : [
                0.15973007678985596,
                1,
                1.0837767124176025
            ],
            "translation" : [
                -2.5297770500183105,
                23.88800811767578,
                39.98541259765625
            ]
        },
        {
            "mesh" : 2,
            "name" : "Cube13_collider.008",
            "scale" : [
                1.0697300434112549,
                1,
                0.1337767243385315
            ],
            "translation" : [
                -2.5158159732818604,
                23.910030364990234,
                40.478336334228516
            ]
        },
        {
            "mesh" : 3,
            "name" : "Cube13_collider.009",
            "scale" : [
                1.0697300434112549,
                1,
                0.1337767243385315
            ],
            "translation" : [
                -2.5158159732818604,
                23.910030364990234,
                39.526119232177734
            ]
        },
        {
            "mesh" : 4,
            "name" : "Cube13_collider.010",
            "scale" : [
                0.15973007678985596,
                1,
                0.4137767553329468
            ],
            "translation" : [
                -3.5397262573242188,
                23.88800811767578,
                39.98541259765625
            ]
        },
        {
            "mesh" : 5,
            "name" : "Cube13_collider.001",
            "scale" : [
                1.0697300434112549,
                0.32306188344955444,
                1.0837767124176025
            ],
            "translation" : [
                -2.546165943145752,
                24.147146224975586,
                39.98536682128906
            ]
        }
    ],
    "materials" : [
        {
            "doubleSided" : true,
            "name" : "Material.025",
            "pbrMetallicRoughness" : {
                "metallicFactor" : 0,
                "roughnessFactor" : 0.5
            }
        },
        {
            "doubleSided" : true,
            "name" : "Material.026",
            "pbrMetallicRoughness" : {
                "metallicFactor" : 0,
                "roughnessFactor" : 0.5
            }
        },
        {
            "doubleSided" : true,
            "name" : "Material.027",
            "pbrMetallicRoughness" : {
                "metallicFactor" : 0,
                "roughnessFactor" : 0.5
            }
        },
        {
            "doubleSided" : true,
            "name" : "Material.028",
            "pbrMetallicRoughness" : {
                "metallicFactor" : 0,
                "roughnessFactor" : 0.5
            }
        },
        {
            "doubleSided" : true,
            "name" : "Material.029",
            "pbrMetallicRoughness" : {
                "metallicFactor" : 0,
                "roughnessFactor" : 0.5
            }
        },
        {
            "doubleSided" : true,
            "name" : "Material.001",
            "pbrMetallicRoughness" : {
                "metallicFactor" : 0,
                "roughnessFactor" : 0.5
            }
        }
    ],
    "meshes" : [
        {
            "name" : "Cube.023",
            "primitives" : [
                {
                    "attributes" : {
                        "POSITION" : 0,
                        "NORMAL" : 1,
                        "TEXCOORD_0" : 2
                    },
                    "indices" : 3,
                    "material" : 0
                }
            ]
        },
        {
            "name" : "Cube.024",
            "primitives" : [
                {
                    "attributes" : {
                        "POSITION" : 4,
                        "NORMAL" : 5,
                        "TEXCOORD_0" : 6
                    },
                    "indices" : 3,
                    "material" : 1
                }
            ]
        },
        {
            "name" : "Cube.025",
            "primitives" : [
                {
                    "attributes" : {
                        "POSITION" : 7,
                        "NORMAL" : 8,
                        "TEXCOORD_0" : 9
                    },
                    "indices" : 3,
                    "material" : 2
                }
            ]
        },
        {
            "name" : "Cube.026",
            "primitives" : [
                {
                    "attributes" : {
                        "POSITION" : 10,
                        "NORMAL" : 11,
                        "TEXCOORD_0" : 12
                    },
                    "indices" : 3,
                    "material" : 3
                }
            ]
        },
        {
            "name" : "Cube.027",
            "primitives" : [
                {
                    "attributes" : {
                        "POSITION" : 13,
                        "NORMAL" : 14,
                        "TEXCOORD_0" : 15
                    },
                    "indices" : 3,
                    "material" : 4
                }
            ]
        },
        {
            "name" : "Cube.001",
            "primitives" : [
                {
                    "attributes" : {
                        "POSITION" : 16,
                        "NORMAL" : 17,
                        "TEXCOORD_0" : 18
                    },
                    "indices" : 3,
                    "material" : 5
                }
            ]
        }
    ],
    "accessors" : [
        {
            "bufferView" : 0,
            "componentType" : 5126,
            "count" : 24,
            "max" : [
                1,
                1,
                1
            ],
            "min" : [
                -1,
                -1,
                -1
            ],
            "type" : "VEC3"
        },
        {
            "bufferView" : 1,
            "componentType" : 5126,
            "count" : 24,
            "type" : "VEC3"
        },
        {
            "bufferView" : 2,
            "componentType" : 5126,
            "count" : 24,
            "type" : "VEC2"
        },
        {
            "bufferView" : 3,
            "componentType" : 5123,
            "count" : 36,
            "type" : "SCALAR"
        },
        {
            "bufferView" : 4,
            "componentType" : 5126,
            "count" : 24,
            "max" : [
                1,
                1,
                1
            ],
            "min" : [
                -1,
                -1,
                -1
            ],
            "type" : "VEC3"
        },
        {
            "bufferView" : 5,
            "componentType" : 5126,
            "count" : 24,
            "type" : "VEC3"
        },
        {
            "bufferView" : 6,
            "componentType" : 5126,
            "count" : 24,
            "type" : "VEC2"
        },
        {
            "bufferView" : 7,
            "componentType" : 5126,
            "count" : 24,
            "max" : [
                1,
                1,
                1
            ],
            "min" : [
                -1,
                -1,
                -1
            ],
            "type" : "VEC3"
        },
        {
            "bufferView" : 8,
            "componentType" : 5126,
            "count" : 24,
            "type" : "VEC3"
        },
        {
            "bufferView" : 9,
            "componentType" : 5126,
            "count" : 24,
            "type" : "VEC2"
        },
        {
            "bufferView" : 10,
            "componentType" : 5126,
            "count" : 24,
            "max" : [
                1,
                1,
                1
            ],
            "min" : [
                -1,
                -1,
                -1
            ],
            "type" : "VEC3"
        },
        {
            "bufferView" : 11,
            "componentType" : 5126,
            "count" : 24,
            "type" : "VEC3"
        },
        {
            "bufferView" : 12,
            "componentType" : 5126,
            "count" : 24,
            "type" : "VEC2"
        },
        {
            "bufferView" : 13,
            "componentType" : 5126,
            "count" : 24,
            "max" : [
                1,
                1,
                1
            ],
            "min" : [
                -1,
                -1,
                -1
            ],
            "type" : "VEC3"
        },
        {
            "bufferView" : 14,
            "componentType" : 5126,
            "count" : 24,
            "type" : "VEC3"
        },
        {
            "bufferView" : 15,
            "componentType" : 5126,
            "count" : 24,
            "type" : "VEC2"
        },
        {
            "bufferView" : 16,
            "componentType" : 5126,
            "count" : 24,
            "max" : [
                1,
                1,
                1
            ],
            "min" : [
                -1,
                -1,
                -1
            ],
            "type" : "VEC3"
        },
        {
            "bufferView" : 17,
            "componentType" : 5126,
            "count" : 24,
            "type" : "VEC3"
        },
        {
            "bufferView" : 18,
            "componentType" : 5126,
            "count" : 24,
            "type" : "VEC2"
        }
    ],
    "bufferViews" : [
        {
            "buffer" : 0,
            "byteLength" : 288,
            "byteOffset" : 0
        },
        {
            "buffer" : 0,
            "byteLength" : 288,
            "byteOffset" : 288
        },
        {
            "buffer" : 0,
            "byteLength" : 192,
            "byteOffset" : 576
        },
        {
            "buffer" : 0,
            "byteLength" : 72,
            "byteOffset" : 768
        },
        {
            "buffer" : 0,
            "byteLength" : 288,
            "byteOffset" : 840
        },
        {
            "buffer" : 0,
            "byteLength" : 288,
            "byteOffset" : 1128
        },
        {
            "buffer" : 0,
            "byteLength" : 192,
            "byteOffset" : 1416
        },
        {
            "buffer" : 0,
            "byteLength" : 288,
            "byteOffset" : 1608
        },
        {
            "buffer" : 0,
            "byteLength" : 288,
            "byteOffset" : 1896
        },
        {
            "buffer" : 0,
            "byteLength" : 192,
            "byteOffset" : 2184
        },
        {
            "buffer" : 0,
            "byteLength" : 288,
            "byteOffset" : 2376
        },
        {
            "buffer" : 0,
            "byteLength" : 288,
            "byteOffset" : 2664
        },
        {
            "buffer" : 0,
            "byteLength" : 192,
            "byteOffset" : 2952
        },
        {
            "buffer" : 0,
            "byteLength" : 288,
            "byteOffset" : 3144
        },
        {
            "buffer" : 0,
            "byteLength" : 288,
            "byteOffset" : 3432
        },
        {
            "buffer" : 0,
            "byteLength" : 192,
            "byteOffset" : 3720
        },
        {
            "buffer" : 0,
            "byteLength" : 288,
            "byteOffset" : 3912
        },
        {
            "buffer" : 0,
            "byteLength" : 288,
            "byteOffset" : 4200
        },
        {
            "buffer" : 0,
            "byteLength" : 192,
            "byteOffset" : 4488
        }
    ],
    "buffers" : [
        {
            "byteLength" : 4680,
            "uri" : "data:application/octet-stream;base64,"
        }
    ]
}
